<mxfile host="app.diagrams.net" modified="2024-03-24T12:24:34.278Z" agent="Mozilla/5.0 (Windows NT 10.0; Win64; x64) AppleWebKit/537.36 (KHTML, like Gecko) Chrome/120.0.0.0 YaBrowser/24.1.0.0 Safari/537.36" etag="hox-yy1oBL_Arq69rKuL" version="24.0.5" type="device">
  <diagram id="C5RBs43oDa-KdzZeNtuy" name="Page-1">
    <mxGraphModel dx="1256" dy="342" grid="1" gridSize="10" guides="1" tooltips="1" connect="1" arrows="1" fold="1" page="1" pageScale="1" pageWidth="827" pageHeight="1169" math="0" shadow="0">
      <root>
        <mxCell id="WIyWlLk6GJQsqaUBKTNV-0" />
        <mxCell id="WIyWlLk6GJQsqaUBKTNV-1" parent="WIyWlLk6GJQsqaUBKTNV-0" />
        <mxCell id="zkfFHV4jXpPFQw0GAbJ--0" value="TankFactory&#xa;{abstract}" style="swimlane;fontStyle=2;align=center;verticalAlign=top;childLayout=stackLayout;horizontal=1;startSize=40;horizontalStack=0;resizeParent=1;resizeLast=0;collapsible=1;marginBottom=0;rounded=0;shadow=0;strokeWidth=1;" parent="WIyWlLk6GJQsqaUBKTNV-1" vertex="1">
          <mxGeometry x="414" y="340" width="200" height="152" as="geometry">
            <mxRectangle x="230" y="140" width="160" height="26" as="alternateBounds" />
          </mxGeometry>
        </mxCell>
        <mxCell id="nJSs2Ho1iTU8ZLYejVj6-14" value="+CreateEquipment(): Equipment" style="text;align=left;verticalAlign=top;spacingLeft=4;spacingRight=4;overflow=hidden;rotatable=0;points=[[0,0.5],[1,0.5]];portConstraint=eastwest;fontStyle=0" parent="zkfFHV4jXpPFQw0GAbJ--0" vertex="1">
          <mxGeometry y="40" width="200" height="26" as="geometry" />
        </mxCell>
        <mxCell id="nJSs2Ho1iTU8ZLYejVj6-15" value="+CreateWeapon(): Weapon" style="text;align=left;verticalAlign=top;spacingLeft=4;spacingRight=4;overflow=hidden;rotatable=0;points=[[0,0.5],[1,0.5]];portConstraint=eastwest;" parent="zkfFHV4jXpPFQw0GAbJ--0" vertex="1">
          <mxGeometry y="66" width="200" height="26" as="geometry" />
        </mxCell>
        <mxCell id="zkfFHV4jXpPFQw0GAbJ--6" value="WheeledTankFactory" style="swimlane;fontStyle=0;align=center;verticalAlign=top;childLayout=stackLayout;horizontal=1;startSize=26;horizontalStack=0;resizeParent=1;resizeLast=0;collapsible=1;marginBottom=0;rounded=0;shadow=0;strokeWidth=1;" parent="WIyWlLk6GJQsqaUBKTNV-1" vertex="1">
          <mxGeometry x="274" y="580" width="200" height="130" as="geometry">
            <mxRectangle x="130" y="380" width="160" height="26" as="alternateBounds" />
          </mxGeometry>
        </mxCell>
        <mxCell id="nJSs2Ho1iTU8ZLYejVj6-1" value="+CreateEquipment(): WheeledTank" style="text;align=left;verticalAlign=top;spacingLeft=4;spacingRight=4;overflow=hidden;rotatable=0;points=[[0,0.5],[1,0.5]];portConstraint=eastwest;" parent="zkfFHV4jXpPFQw0GAbJ--6" vertex="1">
          <mxGeometry y="26" width="200" height="26" as="geometry" />
        </mxCell>
        <mxCell id="nJSs2Ho1iTU8ZLYejVj6-2" value="+CreateWeapon(): Howitzer" style="text;align=left;verticalAlign=top;spacingLeft=4;spacingRight=4;overflow=hidden;rotatable=0;points=[[0,0.5],[1,0.5]];portConstraint=eastwest;" parent="zkfFHV4jXpPFQw0GAbJ--6" vertex="1">
          <mxGeometry y="52" width="200" height="26" as="geometry" />
        </mxCell>
        <mxCell id="zkfFHV4jXpPFQw0GAbJ--12" value="" style="endArrow=block;endSize=10;endFill=0;shadow=0;strokeWidth=1;rounded=0;edgeStyle=elbowEdgeStyle;elbow=vertical;" parent="WIyWlLk6GJQsqaUBKTNV-1" source="zkfFHV4jXpPFQw0GAbJ--6" target="zkfFHV4jXpPFQw0GAbJ--0" edge="1">
          <mxGeometry width="160" relative="1" as="geometry">
            <mxPoint x="394" y="423" as="sourcePoint" />
            <mxPoint x="394" y="423" as="targetPoint" />
          </mxGeometry>
        </mxCell>
        <mxCell id="zkfFHV4jXpPFQw0GAbJ--13" value="TrackedTankFactory" style="swimlane;fontStyle=0;align=center;verticalAlign=top;childLayout=stackLayout;horizontal=1;startSize=30;horizontalStack=0;resizeParent=1;resizeLast=0;collapsible=1;marginBottom=0;rounded=0;shadow=0;strokeWidth=1;" parent="WIyWlLk6GJQsqaUBKTNV-1" vertex="1">
          <mxGeometry x="524" y="580" width="240" height="130" as="geometry">
            <mxRectangle x="340" y="380" width="170" height="26" as="alternateBounds" />
          </mxGeometry>
        </mxCell>
        <mxCell id="nJSs2Ho1iTU8ZLYejVj6-49" value="+CreateEquipment(): TrackedTank" style="text;align=left;verticalAlign=top;spacingLeft=4;spacingRight=4;overflow=hidden;rotatable=0;points=[[0,0.5],[1,0.5]];portConstraint=eastwest;fontStyle=0" parent="zkfFHV4jXpPFQw0GAbJ--13" vertex="1">
          <mxGeometry y="30" width="240" height="26" as="geometry" />
        </mxCell>
        <mxCell id="zkfFHV4jXpPFQw0GAbJ--11" value="+CreateWeapon(): StockGun" style="text;align=left;verticalAlign=top;spacingLeft=4;spacingRight=4;overflow=hidden;rotatable=0;points=[[0,0.5],[1,0.5]];portConstraint=eastwest;" parent="zkfFHV4jXpPFQw0GAbJ--13" vertex="1">
          <mxGeometry y="56" width="240" height="26" as="geometry" />
        </mxCell>
        <mxCell id="zkfFHV4jXpPFQw0GAbJ--16" value="" style="endArrow=block;endSize=10;endFill=0;shadow=0;strokeWidth=1;rounded=0;edgeStyle=elbowEdgeStyle;elbow=vertical;" parent="WIyWlLk6GJQsqaUBKTNV-1" source="zkfFHV4jXpPFQw0GAbJ--13" target="zkfFHV4jXpPFQw0GAbJ--0" edge="1">
          <mxGeometry width="160" relative="1" as="geometry">
            <mxPoint x="404" y="593" as="sourcePoint" />
            <mxPoint x="504" y="491" as="targetPoint" />
          </mxGeometry>
        </mxCell>
        <mxCell id="nJSs2Ho1iTU8ZLYejVj6-3" value="Equipment&#xa;{abstract}" style="swimlane;fontStyle=2;align=center;verticalAlign=top;childLayout=stackLayout;horizontal=1;startSize=40;horizontalStack=0;resizeParent=1;resizeLast=0;collapsible=1;marginBottom=0;rounded=0;shadow=0;strokeWidth=1;" parent="WIyWlLk6GJQsqaUBKTNV-1" vertex="1">
          <mxGeometry x="-656" y="330" width="160" height="152" as="geometry">
            <mxRectangle x="230" y="140" width="160" height="26" as="alternateBounds" />
          </mxGeometry>
        </mxCell>
        <mxCell id="nJSs2Ho1iTU8ZLYejVj6-12" value="+Move(): integer" style="text;align=left;verticalAlign=top;spacingLeft=4;spacingRight=4;overflow=hidden;rotatable=0;points=[[0,0.5],[1,0.5]];portConstraint=eastwest;" parent="nJSs2Ho1iTU8ZLYejVj6-3" vertex="1">
          <mxGeometry y="40" width="160" height="26" as="geometry" />
        </mxCell>
        <mxCell id="nJSs2Ho1iTU8ZLYejVj6-13" value="+Corpus(): Image" style="text;align=left;verticalAlign=top;spacingLeft=4;spacingRight=4;overflow=hidden;rotatable=0;points=[[0,0.5],[1,0.5]];portConstraint=eastwest;" parent="nJSs2Ho1iTU8ZLYejVj6-3" vertex="1">
          <mxGeometry y="66" width="160" height="26" as="geometry" />
        </mxCell>
        <mxCell id="nJSs2Ho1iTU8ZLYejVj6-4" value="WheeledTank" style="swimlane;fontStyle=0;align=center;verticalAlign=top;childLayout=stackLayout;horizontal=1;startSize=26;horizontalStack=0;resizeParent=1;resizeLast=0;collapsible=1;marginBottom=0;rounded=0;shadow=0;strokeWidth=1;" parent="WIyWlLk6GJQsqaUBKTNV-1" vertex="1">
          <mxGeometry x="-796" y="570" width="200" height="138" as="geometry">
            <mxRectangle x="130" y="380" width="160" height="26" as="alternateBounds" />
          </mxGeometry>
        </mxCell>
        <mxCell id="nJSs2Ho1iTU8ZLYejVj6-5" value="+speed: integer {=6}" style="text;align=left;verticalAlign=top;spacingLeft=4;spacingRight=4;overflow=hidden;rotatable=0;points=[[0,0.5],[1,0.5]];portConstraint=eastwest;fontStyle=0" parent="nJSs2Ho1iTU8ZLYejVj6-4" vertex="1">
          <mxGeometry y="26" width="200" height="26" as="geometry" />
        </mxCell>
        <mxCell id="xOFZYgzqbZBAnOboihyc-0" value="" style="line;html=1;strokeWidth=1;align=left;verticalAlign=middle;spacingTop=-1;spacingLeft=3;spacingRight=3;rotatable=0;labelPosition=right;points=[];portConstraint=eastwest;" parent="nJSs2Ho1iTU8ZLYejVj6-4" vertex="1">
          <mxGeometry y="52" width="200" height="8" as="geometry" />
        </mxCell>
        <mxCell id="nJSs2Ho1iTU8ZLYejVj6-6" value="+Move(): integer&#xa;+Corpus(): Image" style="text;align=left;verticalAlign=top;spacingLeft=4;spacingRight=4;overflow=hidden;rotatable=0;points=[[0,0.5],[1,0.5]];portConstraint=eastwest;" parent="nJSs2Ho1iTU8ZLYejVj6-4" vertex="1">
          <mxGeometry y="60" width="200" height="50" as="geometry" />
        </mxCell>
        <mxCell id="nJSs2Ho1iTU8ZLYejVj6-7" value="" style="endArrow=block;endSize=10;endFill=0;shadow=0;strokeWidth=1;rounded=0;edgeStyle=elbowEdgeStyle;elbow=vertical;" parent="WIyWlLk6GJQsqaUBKTNV-1" source="nJSs2Ho1iTU8ZLYejVj6-4" target="nJSs2Ho1iTU8ZLYejVj6-3" edge="1">
          <mxGeometry width="160" relative="1" as="geometry">
            <mxPoint x="-676" y="413" as="sourcePoint" />
            <mxPoint x="-676" y="413" as="targetPoint" />
          </mxGeometry>
        </mxCell>
        <mxCell id="nJSs2Ho1iTU8ZLYejVj6-8" value="TrackedTank" style="swimlane;fontStyle=0;align=center;verticalAlign=top;childLayout=stackLayout;horizontal=1;startSize=30;horizontalStack=0;resizeParent=1;resizeLast=0;collapsible=1;marginBottom=0;rounded=0;shadow=0;strokeWidth=1;" parent="WIyWlLk6GJQsqaUBKTNV-1" vertex="1">
          <mxGeometry x="-546" y="570" width="220" height="140" as="geometry">
            <mxRectangle x="340" y="380" width="170" height="26" as="alternateBounds" />
          </mxGeometry>
        </mxCell>
        <mxCell id="nJSs2Ho1iTU8ZLYejVj6-9" value="+speed(): integer {=3}" style="text;align=left;verticalAlign=top;spacingLeft=4;spacingRight=4;overflow=hidden;rotatable=0;points=[[0,0.5],[1,0.5]];portConstraint=eastwest;" parent="nJSs2Ho1iTU8ZLYejVj6-8" vertex="1">
          <mxGeometry y="30" width="220" height="26" as="geometry" />
        </mxCell>
        <mxCell id="xOFZYgzqbZBAnOboihyc-1" value="" style="line;html=1;strokeWidth=1;align=left;verticalAlign=middle;spacingTop=-1;spacingLeft=3;spacingRight=3;rotatable=0;labelPosition=right;points=[];portConstraint=eastwest;" parent="nJSs2Ho1iTU8ZLYejVj6-8" vertex="1">
          <mxGeometry y="56" width="220" height="8" as="geometry" />
        </mxCell>
        <mxCell id="nJSs2Ho1iTU8ZLYejVj6-10" value="+Move(): integer&#xa;+Corpus(): Image" style="text;align=left;verticalAlign=top;spacingLeft=4;spacingRight=4;overflow=hidden;rotatable=0;points=[[0,0.5],[1,0.5]];portConstraint=eastwest;" parent="nJSs2Ho1iTU8ZLYejVj6-8" vertex="1">
          <mxGeometry y="64" width="220" height="46" as="geometry" />
        </mxCell>
        <mxCell id="nJSs2Ho1iTU8ZLYejVj6-11" value="" style="endArrow=block;endSize=10;endFill=0;shadow=0;strokeWidth=1;rounded=0;edgeStyle=elbowEdgeStyle;elbow=vertical;" parent="WIyWlLk6GJQsqaUBKTNV-1" source="nJSs2Ho1iTU8ZLYejVj6-8" target="nJSs2Ho1iTU8ZLYejVj6-3" edge="1">
          <mxGeometry width="160" relative="1" as="geometry">
            <mxPoint x="-666" y="583" as="sourcePoint" />
            <mxPoint x="-566" y="481" as="targetPoint" />
          </mxGeometry>
        </mxCell>
        <mxCell id="nJSs2Ho1iTU8ZLYejVj6-16" value="Weapon&#xa;{abstract}" style="swimlane;fontStyle=2;align=center;verticalAlign=top;childLayout=stackLayout;horizontal=1;startSize=40;horizontalStack=0;resizeParent=1;resizeLast=0;collapsible=1;marginBottom=0;rounded=0;shadow=0;strokeWidth=1;" parent="WIyWlLk6GJQsqaUBKTNV-1" vertex="1">
          <mxGeometry x="-106" y="338" width="160" height="152" as="geometry">
            <mxRectangle x="230" y="140" width="160" height="26" as="alternateBounds" />
          </mxGeometry>
        </mxCell>
        <mxCell id="nJSs2Ho1iTU8ZLYejVj6-17" value="+Hit(): integer" style="text;align=left;verticalAlign=top;spacingLeft=4;spacingRight=4;overflow=hidden;rotatable=0;points=[[0,0.5],[1,0.5]];portConstraint=eastwest;" parent="nJSs2Ho1iTU8ZLYejVj6-16" vertex="1">
          <mxGeometry y="40" width="160" height="26" as="geometry" />
        </mxCell>
        <mxCell id="nJSs2Ho1iTU8ZLYejVj6-22" value="" style="endArrow=block;endSize=10;endFill=0;shadow=0;strokeWidth=1;rounded=0;edgeStyle=elbowEdgeStyle;elbow=vertical;exitX=0.5;exitY=0;exitDx=0;exitDy=0;" parent="WIyWlLk6GJQsqaUBKTNV-1" source="nJSs2Ho1iTU8ZLYejVj6-52" target="nJSs2Ho1iTU8ZLYejVj6-16" edge="1">
          <mxGeometry width="160" relative="1" as="geometry">
            <mxPoint x="-146" y="578" as="sourcePoint" />
            <mxPoint x="-126" y="421" as="targetPoint" />
          </mxGeometry>
        </mxCell>
        <mxCell id="nJSs2Ho1iTU8ZLYejVj6-23" value="Howitzer" style="swimlane;fontStyle=0;align=center;verticalAlign=top;childLayout=stackLayout;horizontal=1;startSize=30;horizontalStack=0;resizeParent=1;resizeLast=0;collapsible=1;marginBottom=0;rounded=0;shadow=0;strokeWidth=1;" parent="WIyWlLk6GJQsqaUBKTNV-1" vertex="1">
          <mxGeometry x="4" y="578" width="240" height="130" as="geometry">
            <mxRectangle x="340" y="380" width="170" height="26" as="alternateBounds" />
          </mxGeometry>
        </mxCell>
        <mxCell id="nJSs2Ho1iTU8ZLYejVj6-27" value="n: integer {=3}" style="text;align=left;verticalAlign=top;spacingLeft=4;spacingRight=4;overflow=hidden;rotatable=0;points=[[0,0.5],[1,0.5]];portConstraint=eastwest;" parent="nJSs2Ho1iTU8ZLYejVj6-23" vertex="1">
          <mxGeometry y="30" width="240" height="26" as="geometry" />
        </mxCell>
        <mxCell id="nJSs2Ho1iTU8ZLYejVj6-50" value="" style="line;html=1;strokeWidth=1;align=left;verticalAlign=middle;spacingTop=-1;spacingLeft=3;spacingRight=3;rotatable=0;labelPosition=right;points=[];portConstraint=eastwest;" parent="nJSs2Ho1iTU8ZLYejVj6-23" vertex="1">
          <mxGeometry y="56" width="240" height="8" as="geometry" />
        </mxCell>
        <mxCell id="nJSs2Ho1iTU8ZLYejVj6-51" value="+Hit(): integer" style="text;align=left;verticalAlign=top;spacingLeft=4;spacingRight=4;overflow=hidden;rotatable=0;points=[[0,0.5],[1,0.5]];portConstraint=eastwest;" parent="nJSs2Ho1iTU8ZLYejVj6-23" vertex="1">
          <mxGeometry y="64" width="240" height="26" as="geometry" />
        </mxCell>
        <mxCell id="nJSs2Ho1iTU8ZLYejVj6-26" value="" style="endArrow=block;endSize=10;endFill=0;shadow=0;strokeWidth=1;rounded=0;edgeStyle=elbowEdgeStyle;elbow=vertical;" parent="WIyWlLk6GJQsqaUBKTNV-1" source="nJSs2Ho1iTU8ZLYejVj6-23" target="nJSs2Ho1iTU8ZLYejVj6-16" edge="1">
          <mxGeometry width="160" relative="1" as="geometry">
            <mxPoint x="-116" y="591" as="sourcePoint" />
            <mxPoint x="-16" y="489" as="targetPoint" />
          </mxGeometry>
        </mxCell>
        <mxCell id="nJSs2Ho1iTU8ZLYejVj6-52" value="StockGun" style="swimlane;fontStyle=0;align=center;verticalAlign=top;childLayout=stackLayout;horizontal=1;startSize=30;horizontalStack=0;resizeParent=1;resizeLast=0;collapsible=1;marginBottom=0;rounded=0;shadow=0;strokeWidth=1;" parent="WIyWlLk6GJQsqaUBKTNV-1" vertex="1">
          <mxGeometry x="-266" y="578" width="240" height="130" as="geometry">
            <mxRectangle x="340" y="380" width="170" height="26" as="alternateBounds" />
          </mxGeometry>
        </mxCell>
        <mxCell id="nJSs2Ho1iTU8ZLYejVj6-53" value="n: integer {=1}" style="text;align=left;verticalAlign=top;spacingLeft=4;spacingRight=4;overflow=hidden;rotatable=0;points=[[0,0.5],[1,0.5]];portConstraint=eastwest;" parent="nJSs2Ho1iTU8ZLYejVj6-52" vertex="1">
          <mxGeometry y="30" width="240" height="26" as="geometry" />
        </mxCell>
        <mxCell id="nJSs2Ho1iTU8ZLYejVj6-54" value="" style="line;html=1;strokeWidth=1;align=left;verticalAlign=middle;spacingTop=-1;spacingLeft=3;spacingRight=3;rotatable=0;labelPosition=right;points=[];portConstraint=eastwest;" parent="nJSs2Ho1iTU8ZLYejVj6-52" vertex="1">
          <mxGeometry y="56" width="240" height="8" as="geometry" />
        </mxCell>
        <mxCell id="nJSs2Ho1iTU8ZLYejVj6-55" value="+Hit(): integer" style="text;align=left;verticalAlign=top;spacingLeft=4;spacingRight=4;overflow=hidden;rotatable=0;points=[[0,0.5],[1,0.5]];portConstraint=eastwest;" parent="nJSs2Ho1iTU8ZLYejVj6-52" vertex="1">
          <mxGeometry y="64" width="240" height="26" as="geometry" />
        </mxCell>
        <mxCell id="nJSs2Ho1iTU8ZLYejVj6-68" value="" style="endArrow=open;endSize=12;dashed=1;html=1;rounded=0;entryX=0.5;entryY=1;entryDx=0;entryDy=0;exitX=0.5;exitY=1;exitDx=0;exitDy=0;" parent="WIyWlLk6GJQsqaUBKTNV-1" source="zkfFHV4jXpPFQw0GAbJ--6" target="nJSs2Ho1iTU8ZLYejVj6-23" edge="1">
          <mxGeometry width="160" relative="1" as="geometry">
            <mxPoint x="-106" y="620" as="sourcePoint" />
            <mxPoint x="54" y="620" as="targetPoint" />
            <Array as="points">
              <mxPoint x="374" y="800" />
              <mxPoint x="124" y="800" />
            </Array>
          </mxGeometry>
        </mxCell>
        <mxCell id="nJSs2Ho1iTU8ZLYejVj6-69" value="" style="endArrow=open;endSize=12;dashed=1;html=1;rounded=0;entryX=0.5;entryY=1;entryDx=0;entryDy=0;exitX=0.5;exitY=1;exitDx=0;exitDy=0;" parent="WIyWlLk6GJQsqaUBKTNV-1" source="zkfFHV4jXpPFQw0GAbJ--6" target="nJSs2Ho1iTU8ZLYejVj6-4" edge="1">
          <mxGeometry width="160" relative="1" as="geometry">
            <mxPoint x="104" y="750" as="sourcePoint" />
            <mxPoint x="-146" y="530" as="targetPoint" />
            <Array as="points">
              <mxPoint x="374" y="800" />
              <mxPoint x="-696" y="800" />
            </Array>
          </mxGeometry>
        </mxCell>
        <mxCell id="nJSs2Ho1iTU8ZLYejVj6-70" value="" style="endArrow=open;endSize=12;dashed=1;html=1;rounded=0;entryX=0.5;entryY=1;entryDx=0;entryDy=0;exitX=0.5;exitY=1;exitDx=0;exitDy=0;" parent="WIyWlLk6GJQsqaUBKTNV-1" source="zkfFHV4jXpPFQw0GAbJ--13" target="nJSs2Ho1iTU8ZLYejVj6-8" edge="1">
          <mxGeometry width="160" relative="1" as="geometry">
            <mxPoint x="-196" y="760" as="sourcePoint" />
            <mxPoint x="-446" y="540" as="targetPoint" />
            <Array as="points">
              <mxPoint x="644" y="850" />
              <mxPoint x="-436" y="850" />
            </Array>
          </mxGeometry>
        </mxCell>
        <mxCell id="nJSs2Ho1iTU8ZLYejVj6-71" value="" style="endArrow=open;endSize=12;dashed=1;html=1;rounded=0;entryX=0.5;entryY=1;entryDx=0;entryDy=0;exitX=0.5;exitY=1;exitDx=0;exitDy=0;" parent="WIyWlLk6GJQsqaUBKTNV-1" source="zkfFHV4jXpPFQw0GAbJ--13" target="nJSs2Ho1iTU8ZLYejVj6-52" edge="1">
          <mxGeometry width="160" relative="1" as="geometry">
            <mxPoint x="99" y="770" as="sourcePoint" />
            <mxPoint x="-151" y="550" as="targetPoint" />
            <Array as="points">
              <mxPoint x="644" y="850" />
              <mxPoint x="-146" y="850" />
            </Array>
          </mxGeometry>
        </mxCell>
        <mxCell id="PYDv6Hc7h9PDU9QWjJUJ-2" value="" style="endArrow=open;endSize=12;dashed=1;html=1;rounded=0;entryX=0.5;entryY=0;entryDx=0;entryDy=0;exitX=0.5;exitY=0;exitDx=0;exitDy=0;" edge="1" parent="WIyWlLk6GJQsqaUBKTNV-1" source="zkfFHV4jXpPFQw0GAbJ--0" target="nJSs2Ho1iTU8ZLYejVj6-16">
          <mxGeometry width="160" relative="1" as="geometry">
            <mxPoint x="340" y="212" as="sourcePoint" />
            <mxPoint x="90" y="210" as="targetPoint" />
            <Array as="points">
              <mxPoint x="514" y="280" />
              <mxPoint x="-26" y="280" />
            </Array>
          </mxGeometry>
        </mxCell>
        <mxCell id="PYDv6Hc7h9PDU9QWjJUJ-3" value="" style="endArrow=open;endSize=12;dashed=1;html=1;rounded=0;entryX=0.5;entryY=0;entryDx=0;entryDy=0;exitX=0.5;exitY=0;exitDx=0;exitDy=0;" edge="1" parent="WIyWlLk6GJQsqaUBKTNV-1" target="nJSs2Ho1iTU8ZLYejVj6-3">
          <mxGeometry width="160" relative="1" as="geometry">
            <mxPoint x="514" y="338" as="sourcePoint" />
            <mxPoint x="-26" y="336" as="targetPoint" />
            <Array as="points">
              <mxPoint x="514" y="280" />
              <mxPoint x="-576" y="280" />
            </Array>
          </mxGeometry>
        </mxCell>
      </root>
    </mxGraphModel>
  </diagram>
</mxfile>
